<?xml version="1.0" encoding="utf-8"?>
<!-- Generator: Adobe Illustrator 27.0.1, SVG Export Plug-In . SVG Version: 6.00 Build 0)  -->
<svg version="1.1" id="Layer_1" xmlns="http://www.w3.org/2000/svg" xmlns:xlink="http://www.w3.org/1999/xlink" x="0px" y="0px"
	 viewBox="0 0 1024 1024" style="enable-background:new 0 0 1024 1024;" xml:space="preserve">
<style type="text/css">
	.st0{fill:#FFFFFF;}
</style>
<g>
	<g>
		<path class="st0" d="M873.14,663.76c-10.2-8.15-20.36-16.31-30.57-24.41c-37.84-30-77.89-56.77-119.38-81.4
			c-4.04-2.4-4.13-4.86-1.98-8.53c12.31-21.06,20.53-43.72,24.97-67.63c6.26-33.68,6.27-67.3-1.42-100.9
			c-9.71-42.4-29.58-79.12-59.26-110.87c-32.78-35.05-72.96-57.23-119.09-68.52c-43.81-10.73-87.27-8.09-130.16,6.2
			c-49.22,16.41-88.82,45.9-119.05,87.67c-17.86,24.67-30.6,52.07-37.49,81.98c-6.3,27.32-8.22,54.93-5.43,82.8
			c4.38,43.63,20.03,83.1,46.36,117.94c26.33,34.84,59.78,61.13,100.53,77.44c22.72,9.09,46.29,15.21,70.78,17.13
			c4.6,0.36,7.73,2.19,10.43,5.8c21.18,28.31,41.08,57.48,59.17,87.87c27.74,46.6,51.3,95.22,70.69,145.87
			c1.77,4.61,1.03,7.45-2.51,10.94c-21.19,20.89-42.1,42.09-63.12,63.15c-5.78,5.79-11.64,11.49-17.48,17.23
			c-20.75,20.42-54.62,19.95-75.24-0.74c-30.84-30.94-61.91-61.66-92.8-92.56c-41.34-41.36-82.62-82.79-123.88-124.23
			c-22.11-22.2-44.91-43.78-65.97-66.94c-23.95-26.33-43.83-55.75-60.22-87.52C104.9,580.91,89.9,527.2,84.69,470.6
			c-5.07-55.15,1.4-109.05,17.32-161.96c17.35-57.66,46.15-109.08,85.41-154.53c30.23-34.99,65.36-64.22,105.13-88.14
			c37.14-22.34,76.76-37.99,118.56-48.67c18.51-4.73,37.3-7.74,56.35-9.07c17.12-1.19,34.27-2.97,51.39-2.79
			c16.57,0.18,33.16,2.17,49.68,3.99c29.98,3.3,58.99,10.9,87.36,21.01c45.85,16.32,87.53,39.92,125.44,70.49
			c23.98,19.34,45.31,41.19,64.78,64.95c19.27,23.52,35.09,49.22,49.03,76.25c24.33,47.16,37.57,97.4,43.54,149.82
			c3.73,32.7,2.84,65.38-1.56,97.91c-8.07,59.7-27.28,115.59-58.5,167.24c-0.99,1.64-2,3.27-3.14,4.8
			C874.99,662.57,874.15,662.98,873.14,663.76z"/>
		<path class="st0" d="M304.59,448.1c-0.84-1.08-1.45-2.61-2.55-3.15c-2.48-1.21-5.44-1.54-7.76-2.95
			c-1.94-1.18-4.17-3.17-4.67-5.19c-1.75-7.15-0.57-8.26,6.73-7.45c39.93,4.47,79.42,11.59,118.64,20.19
			c52.72,11.56,104.04,27.85,154.21,47.59c39.45,15.53,77.85,33.44,115.19,53.63c43.67,23.61,85.53,50.05,125.42,79.55
			c18.04,13.33,35.33,27.68,52.97,41.55c3.17,2.49,3.44,4.68,0.92,8.3c-21.95,31.45-48.96,58.33-76.11,85.11
			c-4.95,4.88-5.99,4.64-10.37-0.99c-21.73-27.91-45.24-54.24-70.39-79.1c-2.36-2.33-4.15-2.33-6.65-0.14
			c-7.06,6.19-14.24,12.26-21.53,18.18c-2.53,2.05-2.49,3.52-0.53,5.97c19.32,24.18,38.6,48.4,57.75,72.72
			c4.19,5.32,7.71,11.17,11.79,16.58c2.3,3.06,1.64,5.12-0.88,7.61c-20.19,19.93-40.31,39.92-60.4,59.95
			c-12.44,12.41-24.78,24.93-37.15,37.41c-4.08,4.12-5.51,3.91-7.55-1.47C622.7,852,599,804.28,571.62,758.43
			c-32.28-54.05-69.68-104.34-111.87-151.15c-38.12-42.29-80-80.41-124.86-115.32c-13.03-10.14-26.68-19.5-40.07-29.18
			c-3.04-2.2-6.46-12.9-4.64-15.95c0.49-0.82,2.68-1.25,3.82-0.92c3.24,0.91,6.34,2.3,9.5,3.5
			C303.87,448.97,304.23,448.53,304.59,448.1z M550.3,560.81c-1.59,0.9-3.21,1.54-4.47,2.6c-3.32,2.8-6.48,5.79-9.72,8.69
			c-4.62,4.14-4.57,4.78,0.48,8.48c41.03,30.1,79.37,63.29,114.51,100.13c2.93,3.07,5.33,3.34,8.43,0.66
			c6.05-5.23,12.2-10.34,18.23-15.59c3.98-3.47,3.9-5.09-0.15-8.72c-38.52-34.54-79.65-65.67-122.99-93.89
			C553.34,562.32,551.93,561.69,550.3,560.81z M511.71,561.6c1.64-0.96,3.21-1.65,4.51-2.68c2.59-2.05,5-4.32,7.54-6.43
			c4.53-3.77,4.5-5.64-0.57-8.43c-21.94-12.06-43.9-24.1-65.92-36.02c-7.27-3.94-8.09-3.64-13.96,2.24
			c-4.61,4.62-4.39,6.05,0.95,9.41c20.76,13.05,41.48,26.17,62.23,39.23C508.07,559.9,509.81,560.63,511.71,561.6z M374.49,470.41
			c-2.28,2.16-4.53,4.3-6.79,6.45c1.74,1.55,3.26,3.51,5.26,4.58c14.54,7.76,29.27,15.17,43.73,23.09c3.88,2.12,6.66,2.26,9.6-1
			c1.16-1.28,2.48-2.43,3.79-3.56c3.14-2.72,3.04-4.51-1.09-6.25c-15.35-6.46-30.61-13.15-45.9-19.74
			C380.57,472.89,378.02,471.87,374.49,470.41z M313,447.75c-1.03,0.69-2.98,1.4-2.99,2.13c-0.01,1.24,0.9,3.07,1.97,3.63
			c3.53,1.84,7.31,3.21,10.98,4.78c5.42,2.32,10.67,5.22,16.29,6.83c4.61,1.32,9.28,1.63,12.46,6.07c0.65,0.91,3.99,0.71,5.56-0.06
			c1.84-0.91,3.11-3,4.62-4.57c-1.62-1.1-3.1-2.56-4.88-3.23c-10.55-3.96-21.16-7.78-31.78-11.57
			C321.31,450.37,317.33,449.17,313,447.75z"/>
	</g>
</g>
</svg>
